<?xml version="1.0" encoding="UTF-8"?>
<svg version="1.1" xmlns="http://www.w3.org/2000/svg" width="500" height="500">
<path d="M0 0 C165 0 330 0 500 0 C500 165 500 330 500 500 C335 500 170 500 0 500 C0 335 0 170 0 0 Z " fill="#1D1D1D" transform="translate(0,0)"/>
<path d="M0 0 C11.50145139 2.86381521 20.38330453 1.87256127 30.78125 -3.375 C34.16378951 -4.78160059 36.315294 -5.06692102 39.9375 -4.6875 C43.27074028 -2.95677908 45.39644104 -1.77144583 47.09375 1.62890625 C47.97458453 4.4304494 48.20462946 6.63336149 48.1875 9.5625 C48.19265625 10.43390625 48.1978125 11.3053125 48.203125 12.203125 C47.57209352 19.5899053 45.50841524 26.09145784 42.3125 32.75 C41.95913574 33.48718262 41.60577148 34.22436523 41.24169922 34.98388672 C36.27418723 45.01363488 29.0788161 55.14819827 18.0078125 58.98046875 C-1.21697984 62.06369016 -18.53124445 54.07527789 -34.875 45.0625 C-43.00078249 40.60373188 -50.75714797 37.03785839 -60.0625 39.3125 C-67.46303381 54.73027878 -61.89738434 75.27399672 -56.60473633 90.75268555 C-52.55404593 101.90340747 -46.98810438 112.42159766 -39.0625 121.3125 C-38.39734375 122.08207031 -37.7321875 122.85164063 -37.046875 123.64453125 C-31.01524086 130.18603375 -22.30120455 136.65804673 -13.10473633 137.48950195 C-10.69470391 137.55632159 -8.28580664 137.5974164 -5.875 137.625 C-5.04935547 137.65400391 -4.22371094 137.68300781 -3.37304688 137.71289062 C4.05175018 137.78895238 9.24389637 135.82244884 14.6875 130.75 C20.67104593 122.66412712 21.62732834 113.06739876 21.9375 103.3125 C21.2775 103.3125 20.6175 103.3125 19.9375 103.3125 C19.6796875 103.87195313 19.421875 104.43140625 19.15625 105.0078125 C14.35370899 114.08954069 7.40948107 120.49340091 -2.1953125 124.1171875 C-13.14981464 127.25318223 -23.85785092 124.78926234 -33.73828125 119.7265625 C-41.54036481 114.97974864 -47.2918272 107.66214517 -49.5 98.6875 C-49.72958255 97.23519693 -49.91801674 95.77572143 -50.0625 94.3125 C-50.14371094 93.58417969 -50.22492188 92.85585937 -50.30859375 92.10546875 C-50.66442775 85.94846223 -49.06445156 80.67933301 -46.0625 75.3125 C-41.95295394 71.30080028 -39.04384595 69.98047105 -33.2734375 70.01171875 C-30.16855352 70.43411463 -27.92434363 71.75845767 -25.3125 73.4375 C-18.51829781 76.07968974 -11.90066974 73.62576375 -5.375 71.375 C6.29295689 67.46146738 17.91048106 64.58613322 29.65625 70.05859375 C38.14084431 74.72221494 42.84681222 80.04043666 45.9375 89.3125 C46.04994421 91.03773713 46.1064962 92.76687275 46.13037109 94.49560547 C46.15446548 96.08403763 46.15446548 96.08403763 46.17904663 97.70455933 C46.22376458 102.57744613 46.26461746 107.45019748 46.28759766 112.32324219 C46.30408444 114.88160342 46.33127667 117.43992 46.36962891 119.99804688 C46.42487274 123.70466797 46.44635158 127.41020806 46.4609375 131.1171875 C46.48360687 132.24373749 46.50627625 133.37028748 46.52963257 134.53097534 C46.48756016 150.62865246 38.29566476 164.37822898 27.51171875 175.89453125 C19.49235137 183.42713885 10.35451998 188.75929729 -0.0625 192.3125 C-1.64417969 192.86164063 -1.64417969 192.86164063 -3.2578125 193.421875 C-22.68329776 197.96911385 -43.26439882 193.40471525 -60.0625 183.3125 C-67.25552644 178.57211008 -74.26515187 172.50852219 -79.0625 165.3125 C-82.18058981 166.75815982 -84.80312634 168.52056349 -87.5625 170.5625 C-110.29187674 186.56957205 -140.47883637 190.32833334 -167.6484375 186.81640625 C-171.51048366 186.13418851 -175.2659073 185.2941735 -179.0625 184.3125 C-180.10543213 184.05509033 -180.10543213 184.05509033 -181.16943359 183.79248047 C-195.15164613 180.29770811 -206.97363602 174.67351338 -218.0625 165.3125 C-218.66449219 164.84328125 -219.26648438 164.3740625 -219.88671875 163.890625 C-238.09689512 149.3224839 -246.57802394 125.50263935 -249.75 103.125 C-252.18501045 74.73381427 -246.37154102 49.13458055 -227.875 27.0625 C-210.84259513 9.08549035 -186.26399652 0.12402507 -161.8605957 -0.81005859 C-133.44439596 -1.4735657 -102.13520768 0.27943622 -80.28515625 21.0625 C-79.67994141 21.68125 -79.67994141 21.68125 -79.0625 22.3125 C-76.61479893 19.89060948 -74.19939836 17.46262289 -71.87890625 14.91796875 C-51.98074807 -6.42858223 -26.90286242 -7.51276743 0 0 Z " fill="#050505" transform="translate(336.0625,144.6875)"/>
<path d="M0 0 C12.8202305 3.21781516 23.33096929 4.20598501 35.33422852 -2.14868164 C38.26756096 -3.51757011 39.95905523 -3.90391404 43.14672852 -3.46118164 C45.6113702 -0.99653995 45.49752093 -0.18588003 45.58422852 3.22631836 C45.3041107 16.60194397 38.67457481 30.81908402 29.70922852 40.60131836 C23.42606502 46.28806677 16.91985758 47.13847103 8.59985352 46.86303711 C-3.42506027 45.73400109 -12.83549298 40.6149077 -23.29833984 34.98217773 C-38.27405398 26.90404329 -38.27405398 26.90404329 -54.85327148 25.53881836 C-58.9946998 27.3271624 -61.34560731 29.82055769 -63.85327148 33.53881836 C-70.61658381 50.72587369 -64.02685554 75.19294985 -57.12207031 91.50439453 C-56.0687918 93.86846223 -54.9762122 96.20709435 -53.85327148 98.53881836 C-53.50103516 99.27100586 -53.14879883 100.00319336 -52.78588867 100.75756836 C-44.77103819 116.97827401 -33.42671125 130.31423994 -16.07983398 136.81225586 C-6.17325088 140.04493035 6.78421721 140.34566157 16.24438477 135.65600586 C23.40934139 131.44824899 27.02591616 125.41811976 30.30297852 117.87866211 C31.47984594 113.22022856 31.47583526 108.76238323 31.45922852 103.97631836 C31.4753418 103.04368164 31.49145508 102.11104492 31.50805664 101.15014648 C31.51163844 96.12488407 31.42459416 92.62966387 28.14672852 88.53881836 C25.80884423 88.57170375 25.80884423 88.57170375 23.14672852 89.53881836 C21.35314578 91.55769615 19.85829839 93.46086397 18.33422852 95.66381836 C13.2076778 102.67466595 7.1754675 110.77403866 -1.85327148 112.53881836 C-10.53745648 113.32382943 -18.40634941 113.44003426 -25.85327148 108.53881836 C-26.5609668 108.07604492 -27.26866211 107.61327148 -27.99780273 107.13647461 C-34.79387931 101.97952596 -38.06747306 94.89337401 -39.29467773 86.53100586 C-39.54631825 80.57280782 -38.77172469 77.05097659 -34.85327148 72.53881836 C-33.85327148 71.53881836 -33.85327148 71.53881836 -31.35327148 71.22631836 C-27.40859333 71.57852177 -24.92245736 72.78086496 -21.48999023 74.66381836 C-13.72271764 77.24140216 -7.06146312 74.85356502 0.27172852 72.03881836 C10.91980583 68.25208472 20.94126445 65.79726622 31.77172852 70.66381836 C37.09533066 73.78546547 40.75893196 77.78981491 43.14672852 83.53881836 C43.41415405 86.04055786 43.41415405 86.04055786 43.43725586 88.88305664 C43.45001556 89.95161896 43.46277527 91.02018127 43.47592163 92.12112427 C43.47814728 93.27216644 43.48037292 94.42320862 43.48266602 95.60913086 C43.49265121 97.39623978 43.49265121 97.39623978 43.50283813 99.2194519 C43.51296594 101.74288388 43.51765512 104.26634264 43.51733398 106.78979492 C43.52168842 110.62846842 43.55795728 114.4659747 43.59594727 118.30444336 C43.60181928 120.76016861 43.6057861 123.21589931 43.60766602 125.67163086 C43.62203705 126.81052765 43.63640808 127.94942444 43.6512146 129.12283325 C43.56775362 143.87302417 36.19130409 155.38192331 26.27172852 165.91381836 C18.67480322 173.04439774 10.04260259 177.50449025 0.14672852 180.53881836 C-1.70952148 181.15756836 -1.70952148 181.15756836 -3.60327148 181.78881836 C-19.97809829 185.562441 -37.58472482 180.81390359 -51.60327148 172.22631836 C-71.31019726 158.88844251 -81.63273824 138.78325355 -86.16186523 115.82006836 C-91.64136001 84.07577379 -87.8998197 49.03590915 -69.46655273 21.92553711 C-62.18972311 11.76850577 -53.43044594 4.35959763 -41.85327148 -0.46118164 C-41.09788086 -0.78086914 -40.34249023 -1.10055664 -39.56420898 -1.42993164 C-26.49052785 -6.15219773 -13.00520508 -3.2803072 0 0 Z " fill="#FCFCFC" transform="translate(331.853271484375,150.461181640625)"/>
<path d="M0 0 C1.04542969 0.34933594 2.09085938 0.69867188 3.16796875 1.05859375 C13.56485415 4.77612018 22.55933106 9.75493441 30 18 C28.60429119 22.5464178 26.75360192 26.62709137 24.625 30.875 C18.09080641 44.50423317 16.12935727 59.1590251 14 74 C4.36391126 74.20286503 -3.33255782 72.32017243 -10.59375 65.50390625 C-17.70783367 57.95391059 -18.42583704 49.37091945 -18.5625 39.375 C-18.68725785 26.43265301 -18.68725785 26.43265301 -25.109375 15.578125 C-30.6610526 10.94408006 -37.36944252 9.35135823 -44.484375 9.67578125 C-52.9763457 10.77024331 -59.83807076 13.46165061 -65.625 19.9375 C-69.06869281 25.04749579 -70.42943738 31.11039018 -72 37 C-72.1757959 37.55341064 -72.3515918 38.10682129 -72.53271484 38.67700195 C-73.23136595 42.15018131 -73.22381503 45.62634415 -73.2734375 49.15625 C-73.28601089 49.96296143 -73.29858429 50.76967285 -73.3115387 51.60083008 C-73.67663065 80.76357343 -73.61580268 112.95199588 -53 136 C-43.60107869 145.24051253 -31.78742745 149.24791301 -18.84643555 149.17626953 C-6.53767531 148.9838295 4.62921928 145.71299804 13.5625 136.8125 C14.71908768 135.55144634 15.8660759 134.28147085 17 133 C17.99589203 131.99590883 18.99527608 130.99525366 20 130 C21.36907416 132.57637588 22.72028455 135.15968104 24.0625 137.75 C24.45244141 138.47960937 24.84238281 139.20921875 25.24414062 139.9609375 C25.79038086 141.02441406 25.79038086 141.02441406 26.34765625 142.109375 C26.68804932 142.75874023 27.02844238 143.40810547 27.37915039 144.07714844 C28.14698095 146.45521903 27.85325447 147.67914784 27 150 C16.55750374 163.3308463 -4.73430818 168.25985115 -20.41137695 170.58105469 C-47.15914533 173.70365966 -76.3415078 171.06716121 -98.375 154.1875 C-99.93929905 152.81707842 -101.48048535 151.41991621 -103 150 C-103.90105469 149.20078125 -104.80210938 148.4015625 -105.73046875 147.578125 C-124.33231766 130.2335045 -130.90978375 106.75286447 -132 82 C-132.11601562 80.23849609 -132.11601562 80.23849609 -132.234375 78.44140625 C-133.033567 58.17300918 -126.29654928 37.51169168 -112.5625 22.4375 C-110.75212934 20.56871024 -108.89382883 18.78786136 -107 17 C-106.25621094 16.27554688 -105.51242188 15.55109375 -104.74609375 14.8046875 C-78.51081733 -8.46486202 -31.96952524 -10.94068197 0 0 Z " fill="#FCFCFC" transform="translate(224,155)"/>
<path d="M0 0 C0.69931641 -0.02900391 1.39863281 -0.05800781 2.11914062 -0.08789062 C7.27089632 -0.1505406 10.07838511 0.97155792 14.1875 4.3125 C18.0347278 8.57564432 19.28551803 11.60033431 19.3984375 17.28515625 C19.42679688 18.26806641 19.45515625 19.25097656 19.484375 20.26367188 C19.53576756 22.31038045 19.58023291 24.35727672 19.6171875 26.40429688 C19.91835768 36.06056572 21.66072218 45.80024336 28.1875 53.3125 C34.82650418 58.81588504 41.91899124 62.03262995 50.41796875 63.390625 C51.49844482 63.5649707 52.5789209 63.73931641 53.69213867 63.91894531 C54.51560791 64.04881836 55.33907715 64.17869141 56.1875 64.3125 C56.5975159 68.50754509 57.00639543 72.70269908 57.41430664 76.89794922 C57.55268046 78.31952774 57.6913432 79.74107818 57.83032227 81.16259766 C57.89727295 81.84757324 57.96422363 82.53254883 58.03320312 83.23828125 C58.1332666 84.26122787 58.1332666 84.26122787 58.23535156 85.30484009 C58.43259912 87.34906687 58.62162394 89.39395428 58.81054688 91.43896484 C59.04963923 93.89585556 59.31828346 96.35019408 59.62695312 98.79931641 C60.52237675 106.46845393 60.52237675 106.46845393 58.8515625 110.6796875 C54.18741818 116.4160489 49.77394599 120.87561291 43.1875 124.3125 C42.43984375 124.72371094 41.6921875 125.13492188 40.921875 125.55859375 C30.97520708 130.3178438 19.28879473 129.32070926 8.91015625 126.359375 C2.29899031 123.8173485 -3.14852745 119.60673911 -7.8125 114.3125 C-8.28171875 113.78527344 -8.7509375 113.25804687 -9.234375 112.71484375 C-24.02349518 94.76207157 -24.98717278 68.85837663 -25.10766602 46.70483398 C-25.11918055 45.24021744 -25.1396245 43.77564268 -25.16918945 42.3112793 C-25.42335037 29.63021167 -24.84523 16.04764163 -16.375 5.828125 C-11.27840533 0.88442817 -6.95419376 0.09457199 0 0 Z " fill="#1B1B1B" transform="translate(180.8125,170.6875)"/>
</svg>
